<?xml version="1.0" encoding="UTF-8"?>
<svg id="Layer_1" data-name="Layer 1" xmlns="http://www.w3.org/2000/svg" viewBox="0 0 707.7 217.01">
  <path d="m567.53,216.98c-9.71,0-19.42,0-29.12,0-2.08,0-4.16-.11-6.24-.15-.82-.02-1.78-.09-1.93-.99-.11-.65.19-1.58.64-2.07,3.95-4.23,7.96-8.41,11.99-12.56,8.28-8.51,16.67-16.92,24.87-25.5,15.69-16.4,31.34-32.85,46.91-49.37,8.77-9.3,17.19-18.94,26.08-28.13,6.63-6.86,11.71-14.79,17.17-22.5,5.7-8.06,11.61-15.96,17.5-23.87.45-.6,1.44-1.12,2.19-1.14,9.04-.15,18.08-.22,27.12-.26,1,0,2.27-.1,2.79,1,.64,1.35-.37,2.37-1.12,3.35-9.97,12.93-19.94,25.85-29.92,38.77-9.27,12-18.3,24.17-26.61,36.86-4.67,7.13-8.93,14.54-13.15,21.96-9.3,16.35-18.5,32.76-27.62,49.2-2.18,3.92-4.01,8.04-5.8,12.16-1.05,2.42-2.67,3.3-5.24,3.28-10.17-.08-20.33-.03-30.5-.03Zm1.15-11.6c.87.08,1.31.15,1.75.16,1.83.05,3.68-.07,5.48.18,1.72.23,2.85-.35,3.84-1.67,3.02-4.07,6.1-8.1,9.15-12.15.38-.51.71-1.06,1.21-1.81-.73-.04-1.17-.09-1.6-.09-1.95-.02-3.92.09-5.86-.08-1.22-.11-2.09.15-2.82,1.1-2.48,3.23-4.98,6.44-7.47,9.66-1.14,1.47-2.28,2.93-3.67,4.7Zm20.9-25.98c.97.08,1.49.16,2.01.17,1.91.03,3.82.13,5.72-.01.77-.06,1.78-.45,2.21-1.03,2.65-3.62,5.16-7.33,7.7-11.02.2-.3.26-.7.4-1.12-2.19-.13-4.16-.3-6.14-.33-.5,0-1.15.33-1.5.72-2.92,3.29-5.8,6.62-8.65,9.97-.6.7-1.03,1.55-1.75,2.65Zm18.19-21.9c.85.15,1.36.3,1.87.33,1.2.06,2.43-.05,3.61.13,1.44.21,2.4-.29,3.15-1.46,1.98-3.07,3.98-6.13,5.95-9.2.1-.15.09-.37.18-.79-1.77,0-3.42.04-5.07-.02-.97-.03-1.65.31-2.22,1.08-1.13,1.54-2.33,3.03-3.48,4.55-1.27,1.68-2.51,3.38-3.99,5.37Zm28.06-29.67c-1.39-.51-2.76-.7-3.7.4-2.78,3.26-5.43,6.62-8.1,9.97-.51.64-.23,1.1.59,1.14,1.04.05,2.09.13,3.12.06.43-.03,1-.31,1.22-.66,2.29-3.56,4.52-7.16,6.86-10.9Z" style="fill: #159560;"/>
  <path d="m573.29,54.61c-1.99-3.28-3.82-6.29-5.66-9.31-3.28-5.38-6.12-10.97-8.14-16.95-1.79-5.3-2.37-10.63-.1-15.97,5.88-13.82,21.76-15.17,30.09-8.49,5.31,4.26,7.42,11.72,5.29,18.54-2.28,7.31-6.26,13.69-10.78,19.74-2.84,3.8-6.02,7.33-9.07,10.97-.41.49-.96.88-1.63,1.48Zm-4.64-34.67c-.02,4.29,3.5,8.09,7.53,8.12,4.61.04,8.75-4.36,8.77-9.3.02-4.47-3.16-7.41-8.05-7.44-4.76-.03-8.23,3.6-8.26,8.62Z" style="fill: #ff3e3e;"/>
  <g>
    <path d="m364.1,104.22c-.66,4.22-1.27,8.14-1.9,12.07-1.21,7.64-2.45,15.28-3.64,22.93-1.24,7.97-2.46,15.95-3.64,23.94-.48,3.27-2.17,4.87-5.51,4.88-6.79.02-13.58-.02-20.37-.04-.33,0-.67-.02-1-.06-2.78-.33-3.97-1.85-3.55-4.62.41-2.72.9-5.42,1.3-8.13,1.15-7.82,2.25-15.65,3.42-23.47.89-5.92,1.91-11.83,2.81-17.75,1.49-9.7,2.93-19.42,4.41-29.12,1.2-7.81,2.45-15.62,3.64-23.44.35-2.26.62-4.54.85-6.81.22-2.23,1.74-3.98,3.96-4.35.57-.1,1.16-.15,1.74-.15,6.46,0,12.92.04,19.37-.02,2.04-.02,3.42.64,4.44,2.5,3.84,7,7.77,13.96,11.73,20.9,4.78,8.39,9.6,16.75,14.43,25.11,2.81,4.86,5.67,9.7,8.51,14.55.14.23.34.43.65.81.41-2.56.8-4.91,1.15-7.26,1.38-9.13,2.75-18.27,4.13-27.4,1.25-8.27,2.52-16.53,3.75-24.8.44-2.92,1.94-4.36,4.92-4.38,7.58-.04,15.16-.04,22.75-.03,1.73,0,3.11,1.37,2.95,3.16-.22,2.56-.64,5.12-1.04,7.66-1.47,9.29-2.98,18.57-4.45,27.85-1.9,12-3.8,23.99-5.65,36-1.89,12.25-3.72,24.51-5.55,36.77-.25,1.68-.18,3.4-1.5,4.76-1.1,1.15-2.34,1.79-3.96,1.78-5.92-.04-11.83-.13-17.75-.02-2.63.05-4.31-.89-5.62-3.21-6.17-10.9-12.4-21.77-18.74-32.58-5.14-8.76-10.46-17.41-15.71-26.1-.37-.61-.84-1.17-1.38-1.92Z" style="fill: #172f3f;"/>
    <path d="m269.5,50.08c7.92,0,15.83,0,23.75,0,2.69,0,4,1.06,4.48,3.69,2.57,14.03,5.12,28.07,7.71,42.1,1.85,10.06,3.74,20.12,5.61,30.17,1.66,8.91,3.36,17.82,4.99,26.73.64,3.52,1.15,7.06,1.74,10.59.45,2.73-1.07,4.64-3.86,4.67-2.75.03-5.5-.02-8.25-.03-4.75-.02-9.5,0-14.25-.04-3.61-.04-4.7-1.17-5.25-4.77-.82-5.39-1.74-10.76-2.72-16.12-.4-2.19-.64-2.26-2.83-2.26-11.92,0-23.83.03-35.75-.04-1.27,0-1.76.57-2.23,1.51-2.96,5.87-5.94,11.73-8.91,17.59-.19.37-.38.74-.56,1.12-.91,1.91-2.32,2.87-4.53,2.86-7.83-.06-15.66-.03-23.49-.03-2.31,0-4.52-2.61-2.95-5.27,2.59-4.37,4.98-8.84,7.43-13.29.66-1.2,1.28-2.43,1.8-3.7.51-1.23.35-1.48-.96-1.56-.99-.06-2,.02-2.99,0-2.08-.04-4.17-.06-6.24-.19-2.21-.15-3.81-1.68-3.68-3.66.17-2.47,1.21-4.23,3.77-4.28,3.66-.07,7.33-.05,11-.03,5.08.03,10.16.11,15.25.15.62,0,1.25-.04,1.86-.15,1.15-.2,1.77-1.03,1.75-2.23-.02-1.16-.71-1.64-1.76-1.67-1.25-.04-2.5,0-3.74-.01-8.75-.06-17.5-.11-26.25-.19-.82,0-1.68-.1-2.45-.37-1.85-.64-2.94-2.45-2.65-4.18.41-2.41,1.66-3.58,4.02-3.6,8.25-.06,16.5-.09,24.75-.11,3.87,0,7.75.05,11.62.04.87,0,1.76-.06,2.6-.26,1.08-.26,1.34-1.22,1.32-2.16-.02-.92-.81-1.08-1.55-1.09-3.91-.08-7.83-.15-11.74-.21-4.54-.08-9.08-.11-13.62-.23-2.4-.06-4.14-1.91-4.26-4.34-.09-1.82,1.63-3.64,3.83-3.93.98-.13,1.99-.1,2.99-.09,9.46.06,18.91.14,28.37.18,1.96,0,2.58-.42,2.97-1.68.32-1.06,0-1.72-1.07-1.98-.64-.15-1.32-.16-1.98-.16-7.54-.01-15.08-.01-22.62-.03-.62,0-1.25-.05-1.86-.14-2.17-.34-3.62-1.88-3.62-3.79,0-1.87,1.78-3.74,3.82-4,.29-.04.58-.04.87-.04,8-.07,16-.15,23.99-.17,1.61,0,3.24.19,4.84.4,2.2.28,3.58-.41,4.17-2.21.37-1.12,0-1.79-1.16-1.97-.74-.12-1.49-.15-2.24-.14-5.79.02-11.58.05-17.37.08-2.37.01-4.65-1.83-5.14-4.15-.34-1.63.94-3.62,2.8-4.01,1.28-.27,2.64-.25,3.97-.24,7.87.05,15.75.15,23.62.19,2.08.01,2.92-.71,3.43-2.58.18-.66.04-1.11-.64-1.2-1.11-.15-2.23-.26-3.34-.28-3.62-.08-7.25.04-10.86-.2-2.88-.19-4.39-2.78-3.52-5.52.56-1.77,1.69-2.7,3.59-2.71,5.12-.04,10.25,0,15.37-.02,1.04,0,2.08-.07,3.11-.2,1.1-.14,1.79-.97,1.75-2.06-.03-1.1-.69-1.67-1.73-1.77-1.03-.1-2.08-.18-3.11-.18-9.37,0-18.75,0-28.12,0-.79,0-1.6,0-2.36-.14-2.05-.4-3.37-2.05-3.28-3.95.1-2.01,1.67-3.69,3.71-3.92.54-.06,1.08-.07,1.62-.07,13.5-.06,26.99-.11,40.49-.16.54,0,1.09.02,1.62-.04,1.11-.13,1.64-.81,1.64-1.97,0-1.12-.57-1.71-1.66-1.76-.91-.04-1.83-.01-2.75-.01-8.96,0-17.91.02-26.87-.04-.94,0-2.01-.3-2.8-.81-1.21-.78-1.89-2.07-1.63-3.55.31-1.77,1.38-3.08,3.14-3.53,1.15-.3,2.39-.34,3.59-.34,7.5-.03,15-.01,22.5-.01,0-.07,0-.13,0-.2Zm3.85,37.34c-.18-.04-.37-.08-.55-.12-.31.4-.67.77-.91,1.21-.76,1.39-1.48,2.79-2.21,4.2-4.03,7.75-8.08,15.5-12.06,23.27-1.13,2.21-.89,2.56,1.59,2.57,5.67.03,11.33.02,17,.01.62,0,1.24-.12,1.86-.2.9-.11,1.18-.65,1.02-1.5-.35-1.88-.67-3.77-1.05-5.64-1.24-6.24-2.49-12.48-3.73-18.72-.34-1.69-.64-3.39-.96-5.09Z" style="fill: #172f3f;"/>
    <path d="m470.39,168.1c-9.08,0-18.16,0-27.24,0-2.67,0-4.1-1.48-3.72-4.09.97-6.59,1.99-13.16,3.05-19.73.37-2.31,2.58-4.1,5.1-4.19,2.04-.07,4.08-.02,6.12-.02,13.29,0,26.58,0,39.87-.02,1.66,0,3.33-.1,4.99-.25,4.16-.38,6.79-3.42,7.42-8.26.34-2.65-.02-5-2.53-6.36-1.04-.57-2.37-.82-3.58-.84-6.95-.16-13.91-.17-20.87-.3-6.2-.11-12.19-1.19-17.59-4.44-8.4-5.06-12.85-12.54-12.89-22.37-.03-6.98.65-13.96,3.05-20.54,5.56-15.22,16.52-23.98,32.61-26.1,3.25-.43,6.56-.47,9.85-.49,15.33-.08,30.66-.08,45.99-.11,2.62,0,3.98,1.57,3.59,4.34-.64,4.62-1.36,9.22-2.07,13.83-.32,2.1-.7,4.19-1.07,6.27-.45,2.51-1.71,3.6-4.26,3.61-5.79.03-11.58.02-17.37.03-9.79.02-19.58.05-29.37.07-2.94,0-5.77.34-7.8,2.84-2.45,3.01-2.91,6.53-2.09,10.14.6,2.65,2.83,3.82,5.37,4.19,1.64.24,3.32.25,4.98.25,6.5.03,13-.05,19.49.03,4.5.06,8.84,1.08,12.95,2.91,8.5,3.78,13.15,10.5,13.95,19.62.84,9.59-.64,18.95-4.42,27.84-4.1,9.62-11.36,15.96-21.08,19.54-4.73,1.74-9.66,2.51-14.69,2.54-8.58.05-17.16.01-25.75.01v.05Z" style="fill: #172f3f;"/>
    <path d="m63.17,78.05c-.42,2.75-.82,5.38-1.22,8.01-1.57,10.24-3.12,20.48-4.72,30.71-1.98,12.7-4,25.39-6.03,38.08-.46,2.91-.96,5.83-1.54,8.72-.59,2.96-1.86,4.15-4.85,4.21-7.33.16-14.66.22-21.99.25-2.31,0-3.69-1.79-3.32-4.13.83-5.18,1.7-10.34,2.51-15.52,1.57-9.99,3.09-19.98,4.67-29.96,1.43-9,2.91-17.98,4.37-26.98.61-3.78,1.24-7.55,1.83-11.33.26-1.68.11-1.87-1.6-1.99-1.08-.07-2.16-.07-3.25-.07-7.91,0-15.83.03-23.74.02-3.4,0-4.72-1.64-4.2-5.03.97-6.29,1.92-12.58,2.88-18.87.38-2.48,2.15-4.08,4.72-4.08,10.33-.03,20.66-.02,30.99-.04,19.37-.04,38.74-.12,58.11-.12,1.14,0,2.36.37,3.4.87,1.03.49,1.45,1.54,1.25,2.76-.65,3.98-1.29,7.96-1.91,11.95-.4,2.55-.79,5.1-1.14,7.65-.43,3.19-2.32,4.88-5.55,4.88-9.33,0-18.66,0-27.99,0-.5,0-.99,0-1.7,0Z" style="fill: #172f3f;"/>
    <path d="m588.63,53.44c-.27,2.08-.47,4.18-.81,6.25-1.61,9.98-3.25,19.95-4.87,29.93-1.47,9.03-2.95,18.06-4.37,27.1-1.25,7.93-2.41,15.87-3.62,23.81-1.18,7.73-2.37,15.46-3.56,23.19-.39,2.51-2.32,4.33-4.87,4.35-7.21.05-14.41.03-21.62-.04-2.22-.02-4.47-1.51-3.87-4.97,1.28-7.29,2.27-14.63,3.4-21.95,1.2-7.77,2.45-15.53,3.63-23.3,1.81-11.97,3.52-23.95,5.4-35.91,1.41-9,3-17.96,4.56-26.94.13-.73.59-1.4.9-2.09.68.48,1.56.82,2.02,1.46,2.78,3.95,5.45,7.97,8.17,11.96.49.72,1,1.44,1.57,2.09,1.24,1.42,1.56,1.49,2.88.18,1.93-1.9,3.77-3.89,5.61-5.87,2.46-2.66,4.88-5.35,7.35-8.01.49-.53,1.08-.97,1.63-1.45.16.07.33.14.49.22Z" style="fill: #172f3f;"/>
    <path d="m625.11,100.06c-1.23-2.11-2.52-4.2-3.68-6.35-6.25-11.61-12.48-23.23-18.69-34.86-.6-1.13-1.15-2.32-1.56-3.53-.75-2.21.67-4.58,2.97-5.01.97-.18,1.98-.23,2.98-.23,8.33-.02,16.66.03,24.98-.05,1.92-.02,3.2.76,4.06,2.34,1.89,3.51,3.73,7.06,5.59,10.59,1.71,3.24,3.37,6.5,5.17,9.68.67,1.18.59,2.1-.2,3.07-2.15,2.65-4.23,5.36-6.48,7.92-4.65,5.27-9.41,10.46-14.11,15.69-.22.25-.37.55-.56.83-.16-.03-.31-.07-.47-.1Z" style="fill: #172f3f;"/>
    <path d="m673.96,168c-4.16,0-8.33-.1-12.49.04-2.55.09-4.17-.96-5.27-3.15-1.97-3.9-3.8-7.88-6.03-11.62-1.43-2.39-1.13-4.17.38-6.3,5.33-7.49,10.53-15.07,15.79-22.62.21-.31.46-.59.7-.88,1.35-1.59,1.83-1.6,2.88.23,2.25,3.93,4.44,7.91,6.63,11.88,4.59,8.34,9.17,16.7,13.75,25.05.44.8.85,1.62,1.21,2.46.96,2.26-.25,4.53-2.68,4.96-.85.15-1.74.16-2.61.17-4.08.02-8.16,0-12.24,0,0-.08,0-.15,0-.23Z" style="fill: #172f3f;"/>
    <path d="m226.09,74.6c2.16,0,4.33-.02,6.49.01.7,0,1.42.07,2.1.22,1.47.33,2.26,1.24,1.95,2.7-.32,1.46-.93,2.91-1.68,4.21-.32.55-1.31,1-2,1.02-4.66.1-9.33.15-13.99.05-2.57-.05-3.87-1.74-3.77-4.43.08-2.12,1.63-3.51,4.02-3.55,2.29-.03,4.58,0,6.87,0v-.22Z" style="fill: #172f3f;"/>
    <g>
      <path d="m172.98,123.65c.85,1.47,1.56,2.74,2.29,3.99,4.52,7.72,9.07,15.43,13.57,23.16,1.99,3.42,3.92,6.87,5.84,10.32,2.06,3.71.24,6.89-4.05,6.89-8.41,0-16.83-.16-25.24-.22-1.61-.01-2.51-.94-3.21-2.2-2.2-3.92-4.35-7.87-6.58-11.77-4.81-8.42-9.7-16.79-14.44-25.26-1.3-2.32-3.05-3.07-5.54-2.79-1.01.11-1.61.46-1.76,1.53-.53,3.66-1.11,7.32-1.66,10.98-.87,5.89-1.73,11.77-2.59,17.66-.39,2.63-.77,5.27-1.14,7.91-.38,2.65-1.91,4.07-4.6,4.14-1.5.04-3-.02-4.5-.04-5.58-.04-11.16-.07-16.75-.13-3.09-.03-4.8-2.26-4.06-5.27.24-.97.59-1.91.82-2.88.31-1.33-.08-1.91-1.46-1.95-3.46-.11-6.91-.12-10.37-.19-1.41-.03-2.83-.05-4.23-.22-2.19-.26-4.14-2.31-4.11-4.19.03-2.03,1.84-3.76,4.34-3.82,7.41-.18,14.82-.26,22.24-.37.58,0,1.17.03,1.75-.04,1.23-.14,2.12-1.29,2.02-2.56-.08-1-.82-1.56-2.18-1.56-5.45.02-10.91.08-16.36.09-1.04,0-2.1-.03-3.1-.24-1.85-.39-3.01-1.86-3.05-3.62-.04-1.82,1.28-3.75,2.96-4.2.67-.18,1.4-.26,2.1-.26,7.79-.05,15.58-.08,23.37-.12.58,0,1.17-.03,1.74-.12,1.08-.17,1.4-.97,1.39-1.92-.01-.93-.41-1.61-1.47-1.66-.79-.04-1.58-.13-2.37-.14-6.17-.04-12.33-.05-18.5-.1-1.33,0-2.66-.1-3.99-.18-2.21-.15-4.06-1.86-4.11-3.77-.06-2.26,1.47-4.11,3.85-4.26,3.16-.2,6.33-.18,9.49-.21,3.33-.03,6.67.02,10-.01,1.75-.02,2.38-.57,2.53-1.95.09-.85-.25-1.37-1.1-1.5-.33-.05-.66-.07-.99-.07-8.12-.08-16.25-.18-24.37-.23-1.83-.01-3.66.23-5.49.17-.96-.03-2.02-.24-2.84-.72-1.79-1.04-2.37-2.78-1.81-4.6.61-1.97,2.11-3.1,4.18-3.09,12.5.02,25,.04,37.5.06.79,0,1.63.09,2.36-.13.6-.19,1.27-.68,1.55-1.22.68-1.34.19-2.14-1.31-2.32-.87-.1-1.75-.1-2.62-.11-7.08-.06-14.16-.1-21.25-.18-.87,0-1.77-.05-2.59-.29-1.77-.52-2.98-2.22-2.94-3.91.04-1.68,1.32-3.39,3.05-3.86.79-.22,1.64-.27,2.47-.27,19.5-.03,39-.03,58.5-.08,2.91,0,5.84-.07,8.73-.4,6.27-.7,9.97-4.3,11.06-10.56.26-1.51.4-3.06.38-4.6-.06-3.92-2.27-6.19-6.19-6.38-2.33-.11-4.66-.1-7-.09-6.67.03-13.33.1-20,.11-1.25,0-1.96.21-2.11,1.7-.15,1.56-.68,3.08-1.1,4.6-.28.98-.92,1.47-2.03,1.47-8.12-.04-16.25-.02-24.37-.06-.76,0-1.62-.13-2.27-.49-1.29-.74-1.86-1.92-1.6-3.49,1.17-7.06,2.3-14.12,3.43-21.19.33-2.05.65-4.11.91-6.17.3-2.44,1.86-4.06,4.37-4.12,4.46-.1,8.91-.08,13.37-.09,13.29,0,26.58.06,39.87-.03,6.1-.04,12.02.6,17.75,2.85,10.27,4.02,17.29,13.77,17.6,24.81.26,8.99-1.17,17.78-5.22,25.82-4.88,9.69-13,15.83-23.31,19.1-1.06.34-2.12.69-3.42,1.11Z" style="fill: #172f3f;"/>
      <path d="m72.35,136.47c1.32.12,2.65.17,3.96.39,2.05.35,3.33,1.68,3.53,3.5.15,1.34-.85,2.94-2.58,3.61-3.1,1.2-6.29,1.03-9.35-.13-1.63-.61-2.42-2.32-2.16-3.83.3-1.72,2.03-3.23,3.98-3.41.86-.08,1.74-.01,2.61-.01,0-.04,0-.08,0-.12Z" style="fill: #172f3f;"/>
    </g>
  </g>
</svg>